<svg xmlns="http://www.w3.org/2000/svg" viewBox="0 0 64 64" fill="none">
  <defs>
    <linearGradient id="tile" x1="8" y1="8" x2="56" y2="56" gradientUnits="userSpaceOnUse">
      <stop stop-color="#0f2b52" />
      <stop offset="1" stop-color="#0a1731" />
    </linearGradient>
    <linearGradient id="tileStroke" x1="8" y1="8" x2="56" y2="56" gradientUnits="userSpaceOnUse">
      <stop stop-color="#1b7ed9" stop-opacity="0.8" />
      <stop offset="1" stop-color="#0ea5e9" stop-opacity="0.45" />
    </linearGradient>
  </defs>

  <rect x="6" y="6" width="52" height="52" rx="14" fill="url(#tile)" />
  <rect x="6.5" y="6.5" width="51" height="51" rx="13.5" stroke="url(#tileStroke)" />

  <path
    d="M34 16.8C34 16.8 31.8 20.5 29.5 23.1C27.3 25.8 25.1 28.9 25.1 34.4C25.1 40.4 29.2 44.9 34 44.9C38.8 44.9 42.9 40.4 42.9 34.4C42.9 28.9 40.7 25.8 38.5 23.1C36.2 20.5 34 16.8 34 16.8Z"
    stroke="#22d3ee"
    stroke-width="2.7"
    stroke-linecap="round"
    stroke-linejoin="round"
    opacity="0.9"
  />

  <path
    d="M28.1 21.6C28.1 21.6 26.6 24.1 24.9 26C23.2 28 21.6 30.2 21.6 34.2C21.6 38.7 24.6 42 28.1 42C31.6 42 34.6 38.7 34.6 34.2C34.6 30.2 33 28 31.3 26C29.6 24.1 28.1 21.6 28.1 21.6Z"
    fill="url(#tile)"
  />
  <path
    d="M28.1 22.5C28.1 22.5 26.9 24.5 25.5 26C24.2 27.7 22.9 29.5 22.9 33C22.9 36.8 25.2 39.7 28.1 39.7C31 39.7 33.3 36.8 33.3 33C33.3 29.5 32 27.7 30.7 26C29.3 24.5 28.1 22.5 28.1 22.5Z"
    stroke="#22d3ee"
    stroke-width="2.45"
    stroke-linecap="round"
    stroke-linejoin="round"
  />
</svg>
