<svg xmlns="http://www.w3.org/2000/svg" width="512" height="512" viewBox="0 0 64 64" fill="none" aria-hidden="true">
  <defs>
    <linearGradient id="estfba08-bg" x1="0%" y1="0%" x2="100%" y2="100%">
      <stop offset="0%" stop-color="#0f1128"/>
      <stop offset="100%" stop-color="#0a0b1e"/>
    </linearGradient>
  </defs>
  <circle cx="32" cy="32" r="32" fill="url(#estfba08-bg)"/>
  <circle cx="32" cy="32" r="30.5" fill="none" stroke="#00d2ff" stroke-opacity="0.35" stroke-width="1"/>
  <g transform="translate(8.8 8.8) scale(1.9333333)" fill="none" stroke="#00d2ff" stroke-width="2" stroke-linecap="round" stroke-linejoin="round">
    <path d="M7 16.3c2.2 0 4-1.83 4-4.05 0-1.16-.57-2.26-1.71-3.19S7.29 6.75 7 5.3c-.29 1.45-1.14 2.84-2.29 3.76S3 11.1 3 12.25c0 2.22 1.8 4.05 4 4.05z"/>
    <path d="M12.56 6.6A10.97 10.97 0 0 0 14 3.02c.5 2.5 2 4.9 4 6.5s3 3.5 3 5.5a6.98 6.98 0 0 1-11.91 4.97"/>
  </g>
</svg>
