<svg xmlns="http://www.w3.org/2000/svg" width="512" height="512" viewBox="0 0 64 64" fill="none" aria-hidden="true">
  <defs>
    <linearGradient id="esr-bc11-bg" x1="0%" y1="0%" x2="100%" y2="100%">
      <stop offset="0%" stop-color="#1a1040"/>
      <stop offset="100%" stop-color="#0a0b1e"/>
    </linearGradient>
  </defs>
  <circle cx="32" cy="32" r="32" fill="url(#esr-bc11-bg)"/>
  <circle cx="32" cy="32" r="30.5" fill="none" stroke="#a78bfa" stroke-opacity="0.45" stroke-width="1"/>
  <!-- Lucide Sparkles (24), dipusatkan — reward / extra incentive -->
  <g transform="translate(32 32) scale(1.85) translate(-12 -12)" fill="none" stroke="#c4b5fd" stroke-width="1.35" stroke-linecap="round" stroke-linejoin="round">
    <path d="m12 3-1.912 5.813a2 2 0 0 1-1.275 1.275L3 12l5.813 1.912a2 2 0 0 1 1.275 1.275L12 21l1.912-5.813a2 2 0 0 1 1.275-1.275L21 12l-5.813-1.912a2 2 0 0 1-1.275-1.275L12 3Z"/>
    <path d="M5 3v4"/>
    <path d="M19 17v4"/>
    <path d="M3 5h4"/>
    <path d="M17 19h4"/>
  </g>
</svg>
